<svg width="768" height="129" viewBox="0 0 768 129" fill="none" xmlns="http://www.w3.org/2000/svg">
<path fill-rule="evenodd" clip-rule="evenodd" d="M0.094 23.242V46.484L23.094 23.5C35.744 10.859 46.094 0.4 46.094 0.258C46.094 0.116 35.744 0 23.094 0H0.094V23.242ZM32.25 29.5L3.268 58L28.431 57.992L53.594 57.983L67.667 43.242C75.408 35.134 83.188 26.845 84.958 24.822L88.174 21.144L75.684 11.072C68.814 5.533 62.752 1 62.213 1C61.674 1 48.191 13.825 32.25 29.5ZM95.094 29.659C81.619 44.345 70.444 56.73 70.261 57.18C70.077 57.631 80.867 58 94.239 58H118.55L110.17 49.577L101.791 41.153L110.985 29.636L120.18 18.118L119.887 10.538L119.594 2.958L95.094 29.659ZM170.501 20.968C155.514 24.17 147.094 33.349 147.094 46.484C147.094 58.449 153.429 65.638 168.291 70.538C178.785 73.999 183.748 76.484 185.061 78.938C188.119 84.653 184.201 90.895 177.051 91.701C171.025 92.381 165.072 90.63 159.848 86.642L155.521 83.339L149.124 90.277L142.726 97.214L145.16 99.172C149.73 102.849 159.28 106.851 166.319 108.038C178.855 110.152 190.171 107.434 197.953 100.437C203.868 95.119 206.154 89.898 206.218 81.558C206.322 67.961 199.694 61.407 179.242 54.885C167.482 51.135 164.297 46.364 169.507 40.306C171.725 37.728 172.49 37.5 178.926 37.5C185.17 37.5 186.416 37.842 190.399 40.649L194.867 43.799L201.012 36.935L207.158 30.071L203.256 27.489C194.328 21.58 180.509 18.829 170.501 20.968ZM410.202 21.082C403.292 22.439 393.591 27.455 388.293 32.411C374.789 45.042 371.272 66.575 379.754 84.692C389.768 106.084 418.786 115.162 441.604 104.04C444.909 102.43 448.959 99.704 450.604 97.985L453.594 94.858L446.619 88.563L439.644 82.267L436.119 85.024C431.282 88.808 425.95 90.302 419.065 89.804C405.911 88.853 397.559 78.826 397.63 64.068C397.662 57.627 398.103 55.703 400.593 51.152C405.859 41.525 416.062 36.813 426.809 39.045C430.161 39.74 433.455 41.256 435.48 43.034L438.746 45.901L445.67 38.886L452.594 31.871L449.594 29.415C440.155 21.688 424.25 18.323 410.202 21.082ZM498.094 21.814C478.235 27.005 466.094 43.011 466.094 64C466.094 87.221 480.616 104.213 503.844 108.172C524.075 111.619 545.252 101.683 553.232 85C562.165 66.321 558.557 45.05 544.2 31.758C532.87 21.269 514.959 17.406 498.094 21.814ZM228.094 30.5V39H257.594H287.094V30.5V22H257.594H228.094V30.5ZM311.094 64.5V107H337.594H364.094V98V89H347.594H331.094V55.5V22H321.094H311.094V64.5ZM581.094 64.538V107.075L590.344 106.788L599.594 106.5L599.218 76.5C599.011 60 599.094 46.733 599.403 47.018C599.912 47.489 621.094 105.757 621.094 106.689C621.094 106.908 624.343 106.955 628.314 106.794L635.534 106.5L646.258 77.5C652.156 61.55 657.232 48.05 657.538 47.5C657.845 46.95 657.983 60 657.845 76.5L657.594 106.5L667.344 106.786L677.094 107.072V64.509V21.947L662.465 22.223L647.837 22.5L638.715 49.244C633.699 63.953 629.369 75.987 629.094 75.986C628.819 75.985 624.781 65.152 620.12 51.912C615.46 38.673 611.094 26.527 610.419 24.921L609.191 22H595.142H581.094V64.538ZM704.094 64.387V107H714.094H724.094V91.144V75.287L734.344 74.716C746.256 74.052 753.158 72.185 758.798 68.1C766.117 62.797 769.588 51.397 767.074 40.917C766.091 36.818 764.726 34.537 761.071 30.881C753.994 23.805 749.909 22.832 724.844 22.253L704.094 21.773V64.387ZM522.918 40.926C530.749 44.954 535.158 52.165 535.87 62.108C537.042 78.488 527.22 90 512.073 90C505.202 90 501.081 88.557 496.201 84.442C485.689 75.579 485.221 55.109 495.299 45.03C502.268 38.062 513.97 36.323 522.918 40.926ZM743.035 40.47C746.229 42.121 748.125 46.388 747.385 50.26C746.312 55.87 739.983 58.928 729.344 58.976L724.094 59V49V39H732.144C737.269 39 741.226 39.534 743.035 40.47ZM228.094 63.5V72H257.594H287.094V63.5V55H257.594H228.094V63.5ZM9.866 77.271C14.391 81.82 18.094 85.921 18.094 86.384C18.094 86.847 14.023 92.326 9.047 98.559L0 109.891L0.297 116.473L0.594 123.056L25.844 96.592C39.731 82.037 51.094 69.874 51.094 69.564C51.094 69.254 39.966 69 26.366 69H1.638L9.866 77.271ZM49.594 87.174C40.244 97.104 32.469 105.554 32.315 105.95C32.028 106.694 56.168 126.709 58.365 127.549C59.041 127.807 72.866 114.739 89.088 98.509L118.581 69L92.588 69.059L66.594 69.118L49.594 87.174ZM96.594 106L73.61 129H96.852H120.094V106C120.094 93.35 119.978 83 119.836 83C119.694 83 109.235 93.35 96.594 106ZM228.094 98V107H257.594H287.094V98V89H257.594H228.094V98Z" fill="#EA0045"/>
</svg>
